<svg xmlns="http://www.w3.org/2000/svg" version="1.1" xmlns:xlink="http://www.w3.org/1999/xlink" xmlns:svgjs="http://svgjs.com/svgjs" width="1440" height="560" preserveAspectRatio="none" viewBox="0 0 1440 560"><g mask="url(&quot;#SvgjsMask1021&quot;)" fill="none"><rect width="1440" height="560" x="0" y="0" fill="rgba(25, 26, 25, 1)"></rect><path d="M-71.25 363.59L-71.25 363.59" stroke="rgba(30, 81, 40, 1)" stroke-width="1.5"></path><path d="M-71.25 363.59L105.87 378.62" stroke="rgba(30, 81, 40, 1)" stroke-width="1.5"></path><path d="M-71.25 363.59L48.09 504.01" stroke="rgba(30, 81, 40, 1)" stroke-width="1.5"></path><path d="M-71.25 363.59L206.39 378.12" stroke="rgba(30, 81, 40, 1)" stroke-width="1.5"></path><path d="M-71.25 363.59L-81.82 697.13" stroke="rgba(30, 81, 40, 1)" stroke-width="1.5"></path><path d="M-81.82 697.13L-81.82 697.13" stroke="rgba(30, 81, 40, 1)" stroke-width="1.5"></path><path d="M-81.82 697.13L49.04 683.44" stroke="rgba(30, 81, 40, 1)" stroke-width="1.5"></path><path d="M-81.82 697.13L48.09 504.01" stroke="rgba(30, 81, 40, 1)" stroke-width="1.5"></path><path d="M-81.82 697.13L207.75 666.41" stroke="rgba(30, 81, 40, 1)" stroke-width="1.5"></path><path d="M105.87 378.62L105.87 378.62" stroke="rgba(30, 81, 40, 1)" stroke-width="1.5"></path><path d="M105.87 378.62L206.39 378.12" stroke="rgba(30, 81, 40, 1)" stroke-width="1.5"></path><path d="M105.87 378.62L48.09 504.01" stroke="rgba(30, 81, 40, 1)" stroke-width="1.5"></path><path d="M105.87 378.62L213.46 538.97" stroke="rgba(30, 81, 40, 1)" stroke-width="1.5"></path><path d="M48.09 504.01L48.09 504.01" stroke="rgba(30, 81, 40, 1)" stroke-width="1.5"></path><path d="M48.09 504.01L213.46 538.97" stroke="rgba(30, 81, 40, 1)" stroke-width="1.5"></path><path d="M48.09 504.01L49.04 683.44" stroke="rgba(30, 81, 40, 1)" stroke-width="1.5"></path><path d="M49.04 683.44L49.04 683.44" stroke="rgba(30, 81, 40, 1)" stroke-width="1.5"></path><path d="M49.04 683.44L207.75 666.41" stroke="rgba(30, 81, 40, 1)" stroke-width="1.5"></path><path d="M49.04 683.44L213.46 538.97" stroke="rgba(30, 81, 40, 1)" stroke-width="1.5"></path><path d="M206.39 378.12L206.39 378.12" stroke="rgba(30, 81, 40, 1)" stroke-width="1.5"></path><path d="M213.46 538.97L213.46 538.97" stroke="rgba(30, 81, 40, 1)" stroke-width="1.5"></path><path d="M213.46 538.97L207.75 666.41" stroke="rgba(30, 81, 40, 1)" stroke-width="1.5"></path><path d="M207.75 666.41L207.75 666.41" stroke="rgba(30, 81, 40, 1)" stroke-width="1.5"></path><path d="M207.75 666.41L374.39 698.39" stroke="rgba(30, 81, 40, 1)" stroke-width="1.5"></path><path d="M402.14 399.13L402.14 399.13" stroke="rgba(30, 81, 40, 1)" stroke-width="1.5"></path><path d="M402.14 399.13L520.91 373.63" stroke="rgba(30, 81, 40, 1)" stroke-width="1.5"></path><path d="M402.14 399.13L380.46 541.39" stroke="rgba(30, 81, 40, 1)" stroke-width="1.5"></path><path d="M402.14 399.13L206.39 378.12" stroke="rgba(30, 81, 40, 1)" stroke-width="1.5"></path><path d="M402.14 399.13L556.12 541.76" stroke="rgba(30, 81, 40, 1)" stroke-width="1.5"></path><path d="M402.14 399.13L213.46 538.97" stroke="rgba(30, 81, 40, 1)" stroke-width="1.5"></path><path d="M380.46 541.39L380.46 541.39" stroke="rgba(30, 81, 40, 1)" stroke-width="1.5"></path><path d="M380.46 541.39L374.39 698.39" stroke="rgba(30, 81, 40, 1)" stroke-width="1.5"></path><path d="M380.46 541.39L213.46 538.97" stroke="rgba(30, 81, 40, 1)" stroke-width="1.5"></path><path d="M374.39 698.39L374.39 698.39" stroke="rgba(30, 81, 40, 1)" stroke-width="1.5"></path><path d="M520.91 373.63L520.91 373.63" stroke="rgba(30, 81, 40, 1)" stroke-width="1.5"></path><path d="M520.91 373.63L686.09 347.51" stroke="rgba(30, 81, 40, 1)" stroke-width="1.5"></path><path d="M556.12 541.76L556.12 541.76" stroke="rgba(30, 81, 40, 1)" stroke-width="1.5"></path><path d="M556.12 541.76L690.91 531.65" stroke="rgba(30, 81, 40, 1)" stroke-width="1.5"></path><path d="M556.12 541.76L520.91 373.63" stroke="rgba(30, 81, 40, 1)" stroke-width="1.5"></path><path d="M556.12 541.76L380.46 541.39" stroke="rgba(30, 81, 40, 1)" stroke-width="1.5"></path><path d="M704 195.61L704 195.61" stroke="rgba(30, 81, 40, 1)" stroke-width="1.5"></path><path d="M704 195.61L817.82 230.18" stroke="rgba(30, 81, 40, 1)" stroke-width="1.5"></path><path d="M704 195.61L686.09 347.51" stroke="rgba(30, 81, 40, 1)" stroke-width="1.5"></path><path d="M686.09 347.51L686.09 347.51" stroke="rgba(30, 81, 40, 1)" stroke-width="1.5"></path><path d="M686.09 347.51L789.5 395.1" stroke="rgba(30, 81, 40, 1)" stroke-width="1.5"></path><path d="M686.09 347.51L817.82 230.18" stroke="rgba(30, 81, 40, 1)" stroke-width="1.5"></path><path d="M686.09 347.51L690.91 531.65" stroke="rgba(30, 81, 40, 1)" stroke-width="1.5"></path><path d="M686.09 347.51L796.33 503.68" stroke="rgba(30, 81, 40, 1)" stroke-width="1.5"></path><path d="M690.91 531.65L690.91 531.65" stroke="rgba(30, 81, 40, 1)" stroke-width="1.5"></path><path d="M690.91 531.65L796.33 503.68" stroke="rgba(30, 81, 40, 1)" stroke-width="1.5"></path><path d="M690.91 531.65L789.5 395.1" stroke="rgba(30, 81, 40, 1)" stroke-width="1.5"></path><path d="M690.91 531.65L693.62 709.62" stroke="rgba(30, 81, 40, 1)" stroke-width="1.5"></path><path d="M690.91 531.65L847.53 679.24" stroke="rgba(30, 81, 40, 1)" stroke-width="1.5"></path><path d="M693.62 709.62L693.62 709.62" stroke="rgba(30, 81, 40, 1)" stroke-width="1.5"></path><path d="M693.62 709.62L847.53 679.24" stroke="rgba(30, 81, 40, 1)" stroke-width="1.5"></path><path d="M693.62 709.62L556.12 541.76" stroke="rgba(30, 81, 40, 1)" stroke-width="1.5"></path><path d="M693.62 709.62L796.33 503.68" stroke="rgba(30, 81, 40, 1)" stroke-width="1.5"></path><path d="M817.82 230.18L817.82 230.18" stroke="rgba(30, 81, 40, 1)" stroke-width="1.5"></path><path d="M817.82 230.18L789.5 395.1" stroke="rgba(30, 81, 40, 1)" stroke-width="1.5"></path><path d="M817.82 230.18L1010.5 197.34" stroke="rgba(30, 81, 40, 1)" stroke-width="1.5"></path><path d="M817.82 230.18L987.47 349.34" stroke="rgba(30, 81, 40, 1)" stroke-width="1.5"></path><path d="M789.5 395.1L789.5 395.1" stroke="rgba(30, 81, 40, 1)" stroke-width="1.5"></path><path d="M789.5 395.1L796.33 503.68" stroke="rgba(30, 81, 40, 1)" stroke-width="1.5"></path><path d="M789.5 395.1L987.47 349.34" stroke="rgba(30, 81, 40, 1)" stroke-width="1.5"></path><path d="M789.5 395.1L704 195.61" stroke="rgba(30, 81, 40, 1)" stroke-width="1.5"></path><path d="M796.33 503.68L796.33 503.68" stroke="rgba(30, 81, 40, 1)" stroke-width="1.5"></path><path d="M796.33 503.68L847.53 679.24" stroke="rgba(30, 81, 40, 1)" stroke-width="1.5"></path><path d="M847.53 679.24L847.53 679.24" stroke="rgba(30, 81, 40, 1)" stroke-width="1.5"></path><path d="M847.53 679.24L1012.43 711.63" stroke="rgba(30, 81, 40, 1)" stroke-width="1.5"></path><path d="M956.84 -37.55L956.84 -37.55" stroke="rgba(30, 81, 40, 1)" stroke-width="1.5"></path><path d="M956.84 -37.55L1007.1 77.66" stroke="rgba(30, 81, 40, 1)" stroke-width="1.5"></path><path d="M956.84 -37.55L1114.64 -66.94" stroke="rgba(30, 81, 40, 1)" stroke-width="1.5"></path><path d="M956.84 -37.55L1095.39 72.83" stroke="rgba(30, 81, 40, 1)" stroke-width="1.5"></path><path d="M956.84 -37.55L1010.5 197.34" stroke="rgba(30, 81, 40, 1)" stroke-width="1.5"></path><path d="M956.84 -37.55L817.82 230.18" stroke="rgba(30, 81, 40, 1)" stroke-width="1.5"></path><path d="M956.84 -37.55L1258.25 -95.82" stroke="rgba(30, 81, 40, 1)" stroke-width="1.5"></path><path d="M1007.1 77.66L1007.1 77.66" stroke="rgba(30, 81, 40, 1)" stroke-width="1.5"></path><path d="M1007.1 77.66L1095.39 72.83" stroke="rgba(30, 81, 40, 1)" stroke-width="1.5"></path><path d="M1007.1 77.66L1010.5 197.34" stroke="rgba(30, 81, 40, 1)" stroke-width="1.5"></path><path d="M1007.1 77.66L1114.64 -66.94" stroke="rgba(30, 81, 40, 1)" stroke-width="1.5"></path><path d="M1007.1 77.66L1139.23 211.04" stroke="rgba(30, 81, 40, 1)" stroke-width="1.5"></path><path d="M1010.5 197.34L1010.5 197.34" stroke="rgba(30, 81, 40, 1)" stroke-width="1.5"></path><path d="M1010.5 197.34L1139.23 211.04" stroke="rgba(30, 81, 40, 1)" stroke-width="1.5"></path><path d="M1010.5 197.34L1095.39 72.83" stroke="rgba(30, 81, 40, 1)" stroke-width="1.5"></path><path d="M987.47 349.34L987.47 349.34" stroke="rgba(30, 81, 40, 1)" stroke-width="1.5"></path><path d="M987.47 349.34L1010.5 197.34" stroke="rgba(30, 81, 40, 1)" stroke-width="1.5"></path><path d="M987.47 349.34L989.93 517.94" stroke="rgba(30, 81, 40, 1)" stroke-width="1.5"></path><path d="M987.47 349.34L1152.81 389.37" stroke="rgba(30, 81, 40, 1)" stroke-width="1.5"></path><path d="M987.47 349.34L1096.52 493.39" stroke="rgba(30, 81, 40, 1)" stroke-width="1.5"></path><path d="M989.93 517.94L989.93 517.94" stroke="rgba(30, 81, 40, 1)" stroke-width="1.5"></path><path d="M989.93 517.94L1096.52 493.39" stroke="rgba(30, 81, 40, 1)" stroke-width="1.5"></path><path d="M989.93 517.94L796.33 503.68" stroke="rgba(30, 81, 40, 1)" stroke-width="1.5"></path><path d="M989.93 517.94L1012.43 711.63" stroke="rgba(30, 81, 40, 1)" stroke-width="1.5"></path><path d="M1012.43 711.63L1012.43 711.63" stroke="rgba(30, 81, 40, 1)" stroke-width="1.5"></path><path d="M1012.43 711.63L1104.16 699.25" stroke="rgba(30, 81, 40, 1)" stroke-width="1.5"></path><path d="M1012.43 711.63L1096.52 493.39" stroke="rgba(30, 81, 40, 1)" stroke-width="1.5"></path><path d="M1012.43 711.63L1261.21 657.09" stroke="rgba(30, 81, 40, 1)" stroke-width="1.5"></path><path d="M1114.64 -66.94L1114.64 -66.94" stroke="rgba(30, 81, 40, 1)" stroke-width="1.5"></path><path d="M1114.64 -66.94L1095.39 72.83" stroke="rgba(30, 81, 40, 1)" stroke-width="1.5"></path><path d="M1114.64 -66.94L1258.25 -95.82" stroke="rgba(30, 81, 40, 1)" stroke-width="1.5"></path><path d="M1095.39 72.83L1095.39 72.83" stroke="rgba(30, 81, 40, 1)" stroke-width="1.5"></path><path d="M1095.39 72.83L1139.23 211.04" stroke="rgba(30, 81, 40, 1)" stroke-width="1.5"></path><path d="M1139.23 211.04L1139.23 211.04" stroke="rgba(30, 81, 40, 1)" stroke-width="1.5"></path><path d="M1152.81 389.37L1152.81 389.37" stroke="rgba(30, 81, 40, 1)" stroke-width="1.5"></path><path d="M1152.81 389.37L1096.52 493.39" stroke="rgba(30, 81, 40, 1)" stroke-width="1.5"></path><path d="M1152.81 389.37L1295.9 411.34" stroke="rgba(30, 81, 40, 1)" stroke-width="1.5"></path><path d="M1152.81 389.37L1139.23 211.04" stroke="rgba(30, 81, 40, 1)" stroke-width="1.5"></path><path d="M1096.52 493.39L1096.52 493.39" stroke="rgba(30, 81, 40, 1)" stroke-width="1.5"></path><path d="M1096.52 493.39L1256.03 540.62" stroke="rgba(30, 81, 40, 1)" stroke-width="1.5"></path><path d="M1096.52 493.39L1104.16 699.25" stroke="rgba(30, 81, 40, 1)" stroke-width="1.5"></path><path d="M1096.52 493.39L1295.9 411.34" stroke="rgba(30, 81, 40, 1)" stroke-width="1.5"></path><path d="M1104.16 699.25L1104.16 699.25" stroke="rgba(30, 81, 40, 1)" stroke-width="1.5"></path><path d="M1104.16 699.25L1261.21 657.09" stroke="rgba(30, 81, 40, 1)" stroke-width="1.5"></path><path d="M1104.16 699.25L989.93 517.94" stroke="rgba(30, 81, 40, 1)" stroke-width="1.5"></path><path d="M1104.16 699.25L1256.03 540.62" stroke="rgba(30, 81, 40, 1)" stroke-width="1.5"></path><path d="M1258.25 -95.82L1258.25 -95.82" stroke="rgba(30, 81, 40, 1)" stroke-width="1.5"></path><path d="M1260.75 110.95L1260.75 110.95" stroke="rgba(30, 81, 40, 1)" stroke-width="1.5"></path><path d="M1260.75 110.95L1311.69 243.25" stroke="rgba(30, 81, 40, 1)" stroke-width="1.5"></path><path d="M1260.75 110.95L1139.23 211.04" stroke="rgba(30, 81, 40, 1)" stroke-width="1.5"></path><path d="M1260.75 110.95L1418.26 53.72" stroke="rgba(30, 81, 40, 1)" stroke-width="1.5"></path><path d="M1311.69 243.25L1311.69 243.25" stroke="rgba(30, 81, 40, 1)" stroke-width="1.5"></path><path d="M1311.69 243.25L1459.69 232.9" stroke="rgba(30, 81, 40, 1)" stroke-width="1.5"></path><path d="M1295.9 411.34L1295.9 411.34" stroke="rgba(30, 81, 40, 1)" stroke-width="1.5"></path><path d="M1295.9 411.34L1400.57 386.97" stroke="rgba(30, 81, 40, 1)" stroke-width="1.5"></path><path d="M1295.9 411.34L1256.03 540.62" stroke="rgba(30, 81, 40, 1)" stroke-width="1.5"></path><path d="M1295.9 411.34L1311.69 243.25" stroke="rgba(30, 81, 40, 1)" stroke-width="1.5"></path><path d="M1256.03 540.62L1256.03 540.62" stroke="rgba(30, 81, 40, 1)" stroke-width="1.5"></path><path d="M1256.03 540.62L1261.21 657.09" stroke="rgba(30, 81, 40, 1)" stroke-width="1.5"></path><path d="M1256.03 540.62L1424.33 527.04" stroke="rgba(30, 81, 40, 1)" stroke-width="1.5"></path><path d="M1256.03 540.62L1152.81 389.37" stroke="rgba(30, 81, 40, 1)" stroke-width="1.5"></path><path d="M1261.21 657.09L1261.21 657.09" stroke="rgba(30, 81, 40, 1)" stroke-width="1.5"></path><path d="M1413.84 -67.23L1413.84 -67.23" stroke="rgba(30, 81, 40, 1)" stroke-width="1.5"></path><path d="M1413.84 -67.23L1418.26 53.72" stroke="rgba(30, 81, 40, 1)" stroke-width="1.5"></path><path d="M1418.26 53.72L1418.26 53.72" stroke="rgba(30, 81, 40, 1)" stroke-width="1.5"></path><path d="M1418.26 53.72L1560.15 58.5" stroke="rgba(30, 81, 40, 1)" stroke-width="1.5"></path><path d="M1459.69 232.9L1459.69 232.9" stroke="rgba(30, 81, 40, 1)" stroke-width="1.5"></path><path d="M1459.69 232.9L1588.1 241.88" stroke="rgba(30, 81, 40, 1)" stroke-width="1.5"></path><path d="M1400.57 386.97L1400.57 386.97" stroke="rgba(30, 81, 40, 1)" stroke-width="1.5"></path><path d="M1400.57 386.97L1424.33 527.04" stroke="rgba(30, 81, 40, 1)" stroke-width="1.5"></path><path d="M1424.33 527.04L1424.33 527.04" stroke="rgba(30, 81, 40, 1)" stroke-width="1.5"></path><path d="M1424.33 527.04L1442.97 638.33" stroke="rgba(30, 81, 40, 1)" stroke-width="1.5"></path><path d="M1424.33 527.04L1295.9 411.34" stroke="rgba(30, 81, 40, 1)" stroke-width="1.5"></path><path d="M1424.33 527.04L1607.07 491.46" stroke="rgba(30, 81, 40, 1)" stroke-width="1.5"></path><path d="M1442.97 638.33L1442.97 638.33" stroke="rgba(30, 81, 40, 1)" stroke-width="1.5"></path><path d="M1442.97 638.33L1577.63 673.56" stroke="rgba(30, 81, 40, 1)" stroke-width="1.5"></path><path d="M1442.97 638.33L1261.21 657.09" stroke="rgba(30, 81, 40, 1)" stroke-width="1.5"></path><path d="M1552.8 -76.44L1552.8 -76.44" stroke="rgba(30, 81, 40, 1)" stroke-width="1.5"></path><path d="M1552.8 -76.44L1560.15 58.5" stroke="rgba(30, 81, 40, 1)" stroke-width="1.5"></path><path d="M1560.15 58.5L1560.15 58.5" stroke="rgba(30, 81, 40, 1)" stroke-width="1.5"></path><path d="M1560.15 58.5L1588.1 241.88" stroke="rgba(30, 81, 40, 1)" stroke-width="1.5"></path><path d="M1560.15 58.5L1413.84 -67.23" stroke="rgba(30, 81, 40, 1)" stroke-width="1.5"></path><path d="M1588.1 241.88L1588.1 241.88" stroke="rgba(30, 81, 40, 1)" stroke-width="1.5"></path><path d="M1588.1 241.88L1549.41 380.83" stroke="rgba(30, 81, 40, 1)" stroke-width="1.5"></path><path d="M1549.41 380.83L1549.41 380.83" stroke="rgba(30, 81, 40, 1)" stroke-width="1.5"></path><path d="M1549.41 380.83L1607.07 491.46" stroke="rgba(30, 81, 40, 1)" stroke-width="1.5"></path><path d="M1549.41 380.83L1400.57 386.97" stroke="rgba(30, 81, 40, 1)" stroke-width="1.5"></path><path d="M1549.41 380.83L1459.69 232.9" stroke="rgba(30, 81, 40, 1)" stroke-width="1.5"></path><path d="M1607.07 491.46L1607.07 491.46" stroke="rgba(30, 81, 40, 1)" stroke-width="1.5"></path><path d="M1607.07 491.46L1577.63 673.56" stroke="rgba(30, 81, 40, 1)" stroke-width="1.5"></path><path d="M1577.63 673.56L1577.63 673.56" stroke="rgba(30, 81, 40, 1)" stroke-width="1.5"></path><path d="M1577.63 673.56L1424.33 527.04" stroke="rgba(30, 81, 40, 1)" stroke-width="1.5"></path><path d="M1577.63 673.56L1549.41 380.83" stroke="rgba(30, 81, 40, 1)" stroke-width="1.5"></path><path d="M1577.63 673.56L1261.21 657.09" stroke="rgba(30, 81, 40, 1)" stroke-width="1.5"></path><path d="M1577.63 673.56L1400.57 386.97" stroke="rgba(30, 81, 40, 1)" stroke-width="1.5"></path><circle r="5" cx="-71.25" cy="363.59" fill="rgba(30, 81, 40, 1)"></circle><circle r="5" cx="-81.82" cy="697.13" fill="rgba(30, 81, 40, 1)"></circle><circle r="5" cx="105.87" cy="378.62" fill="rgba(30, 81, 40, 1)"></circle><circle r="5" cx="48.09" cy="504.01" fill="rgba(30, 81, 40, 1)"></circle><circle r="5" cx="49.04" cy="683.44" fill="rgba(30, 81, 40, 1)"></circle><circle r="5" cx="206.39" cy="378.12" fill="rgba(30, 81, 40, 1)"></circle><circle r="5" cx="213.46" cy="538.97" fill="rgba(30, 81, 40, 1)"></circle><circle r="5" cx="207.75" cy="666.41" fill="rgba(30, 81, 40, 1)"></circle><circle r="5" cx="402.14" cy="399.13" fill="rgba(30, 81, 40, 1)"></circle><circle r="5" cx="380.46" cy="541.39" fill="rgba(30, 81, 40, 1)"></circle><circle r="5" cx="374.39" cy="698.39" fill="rgba(30, 81, 40, 1)"></circle><circle r="5" cx="520.91" cy="373.63" fill="rgba(30, 81, 40, 1)"></circle><circle r="5" cx="556.12" cy="541.76" fill="rgba(30, 81, 40, 1)"></circle><circle r="5" cx="704" cy="195.61" fill="rgba(30, 81, 40, 1)"></circle><circle r="5" cx="686.09" cy="347.51" fill="rgba(30, 81, 40, 1)"></circle><circle r="5" cx="690.91" cy="531.65" fill="rgba(30, 81, 40, 1)"></circle><circle r="5" cx="693.62" cy="709.62" fill="rgba(30, 81, 40, 1)"></circle><circle r="5" cx="817.82" cy="230.18" fill="rgba(30, 81, 40, 1)"></circle><circle r="5" cx="789.5" cy="395.1" fill="rgba(30, 81, 40, 1)"></circle><circle r="5" cx="796.33" cy="503.68" fill="rgba(30, 81, 40, 1)"></circle><circle r="5" cx="847.53" cy="679.24" fill="rgba(30, 81, 40, 1)"></circle><circle r="5" cx="956.84" cy="-37.55" fill="rgba(30, 81, 40, 1)"></circle><circle r="5" cx="1007.1" cy="77.66" fill="rgba(30, 81, 40, 1)"></circle><circle r="5" cx="1010.5" cy="197.34" fill="rgba(30, 81, 40, 1)"></circle><circle r="5" cx="987.47" cy="349.34" fill="rgba(30, 81, 40, 1)"></circle><circle r="5" cx="989.93" cy="517.94" fill="rgba(30, 81, 40, 1)"></circle><circle r="5" cx="1012.43" cy="711.63" fill="rgba(30, 81, 40, 1)"></circle><circle r="5" cx="1114.64" cy="-66.94" fill="rgba(30, 81, 40, 1)"></circle><circle r="5" cx="1095.39" cy="72.83" fill="rgba(30, 81, 40, 1)"></circle><circle r="5" cx="1139.23" cy="211.04" fill="rgba(30, 81, 40, 1)"></circle><circle r="5" cx="1152.81" cy="389.37" fill="rgba(30, 81, 40, 1)"></circle><circle r="5" cx="1096.52" cy="493.39" fill="rgba(30, 81, 40, 1)"></circle><circle r="5" cx="1104.16" cy="699.25" fill="rgba(30, 81, 40, 1)"></circle><circle r="5" cx="1258.25" cy="-95.82" fill="rgba(30, 81, 40, 1)"></circle><circle r="5" cx="1260.75" cy="110.95" fill="rgba(30, 81, 40, 1)"></circle><circle r="5" cx="1311.69" cy="243.25" fill="rgba(30, 81, 40, 1)"></circle><circle r="5" cx="1295.9" cy="411.34" fill="rgba(30, 81, 40, 1)"></circle><circle r="5" cx="1256.03" cy="540.62" fill="rgba(30, 81, 40, 1)"></circle><circle r="5" cx="1261.21" cy="657.09" fill="rgba(30, 81, 40, 1)"></circle><circle r="5" cx="1413.84" cy="-67.23" fill="rgba(30, 81, 40, 1)"></circle><circle r="5" cx="1418.26" cy="53.72" fill="rgba(30, 81, 40, 1)"></circle><circle r="5" cx="1459.69" cy="232.9" fill="rgba(30, 81, 40, 1)"></circle><circle r="5" cx="1400.57" cy="386.97" fill="rgba(30, 81, 40, 1)"></circle><circle r="5" cx="1424.33" cy="527.04" fill="rgba(30, 81, 40, 1)"></circle><circle r="5" cx="1442.97" cy="638.33" fill="rgba(30, 81, 40, 1)"></circle><circle r="5" cx="1552.8" cy="-76.44" fill="rgba(30, 81, 40, 1)"></circle><circle r="5" cx="1560.15" cy="58.5" fill="rgba(30, 81, 40, 1)"></circle><circle r="5" cx="1588.1" cy="241.88" fill="rgba(30, 81, 40, 1)"></circle><circle r="5" cx="1549.41" cy="380.83" fill="rgba(30, 81, 40, 1)"></circle><circle r="5" cx="1607.07" cy="491.46" fill="rgba(30, 81, 40, 1)"></circle><circle r="5" cx="1577.63" cy="673.56" fill="rgba(30, 81, 40, 1)"></circle><path d="M231.15 538.66L231.15 538.66" stroke="hsl(109.60000000000002, 44.5%, 56.1%)" stroke-width="1.5"></path><path d="M231.15 538.66L341.67 488.46" stroke="hsl(109.60000000000002, 44.5%, 56.1%)" stroke-width="1.5"></path><path d="M231.15 538.66L99.89 488.38" stroke="hsl(109.60000000000002, 44.5%, 56.1%)" stroke-width="1.5"></path><path d="M231.15 538.66L202.72 684.49" stroke="hsl(109.60000000000002, 44.5%, 56.1%)" stroke-width="1.5"></path><path d="M1568.84 356.03L1568.84 356.03" stroke="hsl(109.60000000000002, 44.5%, 56.1%)" stroke-width="1.5"></path><path d="M1568.84 356.03L1538.11 202.61" stroke="hsl(109.60000000000002, 44.5%, 56.1%)" stroke-width="1.5"></path><path d="M1568.84 356.03L1405.15 345.82" stroke="hsl(109.60000000000002, 44.5%, 56.1%)" stroke-width="1.5"></path><path d="M1568.84 356.03L1561.61 523.53" stroke="hsl(109.60000000000002, 44.5%, 56.1%)" stroke-width="1.5"></path><path d="M1568.84 356.03L1403.77 498.82" stroke="hsl(109.60000000000002, 44.5%, 56.1%)" stroke-width="1.5"></path><path d="M1568.84 356.03L1582.47 105.39" stroke="hsl(109.60000000000002, 44.5%, 56.1%)" stroke-width="1.5"></path><path d="M1568.84 356.03L1584.09 652.06" stroke="hsl(109.60000000000002, 44.5%, 56.1%)" stroke-width="1.5"></path><path d="M-104.3 546.98L-104.3 546.98" stroke="hsl(109.60000000000002, 44.5%, 56.1%)" stroke-width="1.5"></path><path d="M-104.3 546.98L-73.63 647.73" stroke="hsl(109.60000000000002, 44.5%, 56.1%)" stroke-width="1.5"></path><path d="M-104.3 546.98L99.89 488.38" stroke="hsl(109.60000000000002, 44.5%, 56.1%)" stroke-width="1.5"></path><path d="M-73.63 647.73L-73.63 647.73" stroke="hsl(109.60000000000002, 44.5%, 56.1%)" stroke-width="1.5"></path><path d="M-73.63 647.73L108.28 681.66" stroke="hsl(109.60000000000002, 44.5%, 56.1%)" stroke-width="1.5"></path><path d="M-73.63 647.73L99.89 488.38" stroke="hsl(109.60000000000002, 44.5%, 56.1%)" stroke-width="1.5"></path><path d="M-73.63 647.73L202.72 684.49" stroke="hsl(109.60000000000002, 44.5%, 56.1%)" stroke-width="1.5"></path><path d="M-73.63 647.73L231.15 538.66" stroke="hsl(109.60000000000002, 44.5%, 56.1%)" stroke-width="1.5"></path><path d="M-73.63 647.73L341.67 488.46" stroke="hsl(109.60000000000002, 44.5%, 56.1%)" stroke-width="1.5"></path><path d="M99.89 488.38L99.89 488.38" stroke="hsl(109.60000000000002, 44.5%, 56.1%)" stroke-width="1.5"></path><path d="M99.89 488.38L108.28 681.66" stroke="hsl(109.60000000000002, 44.5%, 56.1%)" stroke-width="1.5"></path><path d="M99.89 488.38L202.72 684.49" stroke="hsl(109.60000000000002, 44.5%, 56.1%)" stroke-width="1.5"></path><path d="M108.28 681.66L108.28 681.66" stroke="hsl(109.60000000000002, 44.5%, 56.1%)" stroke-width="1.5"></path><path d="M108.28 681.66L202.72 684.49" stroke="hsl(109.60000000000002, 44.5%, 56.1%)" stroke-width="1.5"></path><path d="M202.72 684.49L202.72 684.49" stroke="hsl(109.60000000000002, 44.5%, 56.1%)" stroke-width="1.5"></path><path d="M202.72 684.49L391.75 676.86" stroke="hsl(109.60000000000002, 44.5%, 56.1%)" stroke-width="1.5"></path><path d="M341.67 488.46L341.67 488.46" stroke="hsl(109.60000000000002, 44.5%, 56.1%)" stroke-width="1.5"></path><path d="M341.67 488.46L391.75 676.86" stroke="hsl(109.60000000000002, 44.5%, 56.1%)" stroke-width="1.5"></path><path d="M341.67 488.46L549.53 561.04" stroke="hsl(109.60000000000002, 44.5%, 56.1%)" stroke-width="1.5"></path><path d="M341.67 488.46L202.72 684.49" stroke="hsl(109.60000000000002, 44.5%, 56.1%)" stroke-width="1.5"></path><path d="M341.67 488.46L99.89 488.38" stroke="hsl(109.60000000000002, 44.5%, 56.1%)" stroke-width="1.5"></path><path d="M391.75 676.86L391.75 676.86" stroke="hsl(109.60000000000002, 44.5%, 56.1%)" stroke-width="1.5"></path><path d="M391.75 676.86L549.53 561.04" stroke="hsl(109.60000000000002, 44.5%, 56.1%)" stroke-width="1.5"></path><path d="M391.75 676.86L231.15 538.66" stroke="hsl(109.60000000000002, 44.5%, 56.1%)" stroke-width="1.5"></path><path d="M391.75 676.86L665.77 685.66" stroke="hsl(109.60000000000002, 44.5%, 56.1%)" stroke-width="1.5"></path><path d="M549.53 561.04L549.53 561.04" stroke="hsl(109.60000000000002, 44.5%, 56.1%)" stroke-width="1.5"></path><path d="M549.53 561.04L665.77 685.66" stroke="hsl(109.60000000000002, 44.5%, 56.1%)" stroke-width="1.5"></path><path d="M665.77 685.66L665.77 685.66" stroke="hsl(109.60000000000002, 44.5%, 56.1%)" stroke-width="1.5"></path><path d="M665.77 685.66L847.88 682.78" stroke="hsl(109.60000000000002, 44.5%, 56.1%)" stroke-width="1.5"></path><path d="M665.77 685.66L803.3 518.75" stroke="hsl(109.60000000000002, 44.5%, 56.1%)" stroke-width="1.5"></path><path d="M788.44 365.81L788.44 365.81" stroke="hsl(109.60000000000002, 44.5%, 56.1%)" stroke-width="1.5"></path><path d="M788.44 365.81L803.3 518.75" stroke="hsl(109.60000000000002, 44.5%, 56.1%)" stroke-width="1.5"></path><path d="M788.44 365.81L1006.84 408.95" stroke="hsl(109.60000000000002, 44.5%, 56.1%)" stroke-width="1.5"></path><path d="M788.44 365.81L988.09 239.91" stroke="hsl(109.60000000000002, 44.5%, 56.1%)" stroke-width="1.5"></path><path d="M788.44 365.81L945.76 557.77" stroke="hsl(109.60000000000002, 44.5%, 56.1%)" stroke-width="1.5"></path><path d="M788.44 365.81L549.53 561.04" stroke="hsl(109.60000000000002, 44.5%, 56.1%)" stroke-width="1.5"></path><path d="M803.3 518.75L803.3 518.75" stroke="hsl(109.60000000000002, 44.5%, 56.1%)" stroke-width="1.5"></path><path d="M803.3 518.75L945.76 557.77" stroke="hsl(109.60000000000002, 44.5%, 56.1%)" stroke-width="1.5"></path><path d="M803.3 518.75L847.88 682.78" stroke="hsl(109.60000000000002, 44.5%, 56.1%)" stroke-width="1.5"></path><path d="M847.88 682.78L847.88 682.78" stroke="hsl(109.60000000000002, 44.5%, 56.1%)" stroke-width="1.5"></path><path d="M847.88 682.78L974.25 696.78" stroke="hsl(109.60000000000002, 44.5%, 56.1%)" stroke-width="1.5"></path><path d="M847.88 682.78L945.76 557.77" stroke="hsl(109.60000000000002, 44.5%, 56.1%)" stroke-width="1.5"></path><path d="M988.09 239.91L988.09 239.91" stroke="hsl(109.60000000000002, 44.5%, 56.1%)" stroke-width="1.5"></path><path d="M988.09 239.91L1112.15 192.89" stroke="hsl(109.60000000000002, 44.5%, 56.1%)" stroke-width="1.5"></path><path d="M988.09 239.91L1006.84 408.95" stroke="hsl(109.60000000000002, 44.5%, 56.1%)" stroke-width="1.5"></path><path d="M1006.84 408.95L1006.84 408.95" stroke="hsl(109.60000000000002, 44.5%, 56.1%)" stroke-width="1.5"></path><path d="M1006.84 408.95L1121.45 490.7" stroke="hsl(109.60000000000002, 44.5%, 56.1%)" stroke-width="1.5"></path><path d="M1006.84 408.95L1146.87 374.17" stroke="hsl(109.60000000000002, 44.5%, 56.1%)" stroke-width="1.5"></path><path d="M1006.84 408.95L945.76 557.77" stroke="hsl(109.60000000000002, 44.5%, 56.1%)" stroke-width="1.5"></path><path d="M945.76 557.77L945.76 557.77" stroke="hsl(109.60000000000002, 44.5%, 56.1%)" stroke-width="1.5"></path><path d="M945.76 557.77L974.25 696.78" stroke="hsl(109.60000000000002, 44.5%, 56.1%)" stroke-width="1.5"></path><path d="M974.25 696.78L974.25 696.78" stroke="hsl(109.60000000000002, 44.5%, 56.1%)" stroke-width="1.5"></path><path d="M974.25 696.78L1116.79 677.1" stroke="hsl(109.60000000000002, 44.5%, 56.1%)" stroke-width="1.5"></path><path d="M1112.15 192.89L1112.15 192.89" stroke="hsl(109.60000000000002, 44.5%, 56.1%)" stroke-width="1.5"></path><path d="M1112.15 192.89L1287.3 236.05" stroke="hsl(109.60000000000002, 44.5%, 56.1%)" stroke-width="1.5"></path><path d="M1112.15 192.89L1146.87 374.17" stroke="hsl(109.60000000000002, 44.5%, 56.1%)" stroke-width="1.5"></path><path d="M1112.15 192.89L1272.46 96.98" stroke="hsl(109.60000000000002, 44.5%, 56.1%)" stroke-width="1.5"></path><path d="M1146.87 374.17L1146.87 374.17" stroke="hsl(109.60000000000002, 44.5%, 56.1%)" stroke-width="1.5"></path><path d="M1146.87 374.17L1261.98 345.47" stroke="hsl(109.60000000000002, 44.5%, 56.1%)" stroke-width="1.5"></path><path d="M1146.87 374.17L1121.45 490.7" stroke="hsl(109.60000000000002, 44.5%, 56.1%)" stroke-width="1.5"></path><path d="M1146.87 374.17L1287.3 236.05" stroke="hsl(109.60000000000002, 44.5%, 56.1%)" stroke-width="1.5"></path><path d="M1146.87 374.17L988.09 239.91" stroke="hsl(109.60000000000002, 44.5%, 56.1%)" stroke-width="1.5"></path><path d="M1121.45 490.7L1121.45 490.7" stroke="hsl(109.60000000000002, 44.5%, 56.1%)" stroke-width="1.5"></path><path d="M1121.45 490.7L1116.79 677.1" stroke="hsl(109.60000000000002, 44.5%, 56.1%)" stroke-width="1.5"></path><path d="M1121.45 490.7L945.76 557.77" stroke="hsl(109.60000000000002, 44.5%, 56.1%)" stroke-width="1.5"></path><path d="M1116.79 677.1L1116.79 677.1" stroke="hsl(109.60000000000002, 44.5%, 56.1%)" stroke-width="1.5"></path><path d="M1116.79 677.1L1309.92 652.69" stroke="hsl(109.60000000000002, 44.5%, 56.1%)" stroke-width="1.5"></path><path d="M1269.74 -65.1L1269.74 -65.1" stroke="hsl(109.60000000000002, 44.5%, 56.1%)" stroke-width="1.5"></path><path d="M1269.74 -65.1L1422.73 -99.14" stroke="hsl(109.60000000000002, 44.5%, 56.1%)" stroke-width="1.5"></path><path d="M1269.74 -65.1L1272.46 96.98" stroke="hsl(109.60000000000002, 44.5%, 56.1%)" stroke-width="1.5"></path><path d="M1269.74 -65.1L1400.26 90.68" stroke="hsl(109.60000000000002, 44.5%, 56.1%)" stroke-width="1.5"></path><path d="M1269.74 -65.1L1559.76 -55.23" stroke="hsl(109.60000000000002, 44.5%, 56.1%)" stroke-width="1.5"></path><path d="M1269.74 -65.1L1287.3 236.05" stroke="hsl(109.60000000000002, 44.5%, 56.1%)" stroke-width="1.5"></path><path d="M1269.74 -65.1L1112.15 192.89" stroke="hsl(109.60000000000002, 44.5%, 56.1%)" stroke-width="1.5"></path><path d="M1272.46 96.98L1272.46 96.98" stroke="hsl(109.60000000000002, 44.5%, 56.1%)" stroke-width="1.5"></path><path d="M1272.46 96.98L1400.26 90.68" stroke="hsl(109.60000000000002, 44.5%, 56.1%)" stroke-width="1.5"></path><path d="M1272.46 96.98L1287.3 236.05" stroke="hsl(109.60000000000002, 44.5%, 56.1%)" stroke-width="1.5"></path><path d="M1272.46 96.98L1422.73 -99.14" stroke="hsl(109.60000000000002, 44.5%, 56.1%)" stroke-width="1.5"></path><path d="M1287.3 236.05L1287.3 236.05" stroke="hsl(109.60000000000002, 44.5%, 56.1%)" stroke-width="1.5"></path><path d="M1287.3 236.05L1261.98 345.47" stroke="hsl(109.60000000000002, 44.5%, 56.1%)" stroke-width="1.5"></path><path d="M1287.3 236.05L1405.15 345.82" stroke="hsl(109.60000000000002, 44.5%, 56.1%)" stroke-width="1.5"></path><path d="M1287.3 236.05L1400.26 90.68" stroke="hsl(109.60000000000002, 44.5%, 56.1%)" stroke-width="1.5"></path><path d="M1261.98 345.47L1261.98 345.47" stroke="hsl(109.60000000000002, 44.5%, 56.1%)" stroke-width="1.5"></path><path d="M1261.98 345.47L1405.15 345.82" stroke="hsl(109.60000000000002, 44.5%, 56.1%)" stroke-width="1.5"></path><path d="M1261.98 345.47L1121.45 490.7" stroke="hsl(109.60000000000002, 44.5%, 56.1%)" stroke-width="1.5"></path><path d="M1261.98 345.47L1403.77 498.82" stroke="hsl(109.60000000000002, 44.5%, 56.1%)" stroke-width="1.5"></path><path d="M1261.98 345.47L1112.15 192.89" stroke="hsl(109.60000000000002, 44.5%, 56.1%)" stroke-width="1.5"></path><path d="M1303.45 562.03L1303.45 562.03" stroke="hsl(109.60000000000002, 44.5%, 56.1%)" stroke-width="1.5"></path><path d="M1303.45 562.03L1309.92 652.69" stroke="hsl(109.60000000000002, 44.5%, 56.1%)" stroke-width="1.5"></path><path d="M1303.45 562.03L1403.77 498.82" stroke="hsl(109.60000000000002, 44.5%, 56.1%)" stroke-width="1.5"></path><path d="M1303.45 562.03L1441.84 661.56" stroke="hsl(109.60000000000002, 44.5%, 56.1%)" stroke-width="1.5"></path><path d="M1303.45 562.03L1121.45 490.7" stroke="hsl(109.60000000000002, 44.5%, 56.1%)" stroke-width="1.5"></path><path d="M1303.45 562.03L1116.79 677.1" stroke="hsl(109.60000000000002, 44.5%, 56.1%)" stroke-width="1.5"></path><path d="M1303.45 562.03L1261.98 345.47" stroke="hsl(109.60000000000002, 44.5%, 56.1%)" stroke-width="1.5"></path><path d="M1309.92 652.69L1309.92 652.69" stroke="hsl(109.60000000000002, 44.5%, 56.1%)" stroke-width="1.5"></path><path d="M1309.92 652.69L1441.84 661.56" stroke="hsl(109.60000000000002, 44.5%, 56.1%)" stroke-width="1.5"></path><path d="M1309.92 652.69L1403.77 498.82" stroke="hsl(109.60000000000002, 44.5%, 56.1%)" stroke-width="1.5"></path><path d="M1422.73 -99.14L1422.73 -99.14" stroke="hsl(109.60000000000002, 44.5%, 56.1%)" stroke-width="1.5"></path><path d="M1422.73 -99.14L1559.76 -55.23" stroke="hsl(109.60000000000002, 44.5%, 56.1%)" stroke-width="1.5"></path><path d="M1422.73 -99.14L1400.26 90.68" stroke="hsl(109.60000000000002, 44.5%, 56.1%)" stroke-width="1.5"></path><path d="M1422.73 -99.14L1582.47 105.39" stroke="hsl(109.60000000000002, 44.5%, 56.1%)" stroke-width="1.5"></path><path d="M1422.73 -99.14L1538.11 202.61" stroke="hsl(109.60000000000002, 44.5%, 56.1%)" stroke-width="1.5"></path><path d="M1400.26 90.68L1400.26 90.68" stroke="hsl(109.60000000000002, 44.5%, 56.1%)" stroke-width="1.5"></path><path d="M1400.26 90.68L1538.11 202.61" stroke="hsl(109.60000000000002, 44.5%, 56.1%)" stroke-width="1.5"></path><path d="M1400.26 90.68L1582.47 105.39" stroke="hsl(109.60000000000002, 44.5%, 56.1%)" stroke-width="1.5"></path><path d="M1405.15 345.82L1405.15 345.82" stroke="hsl(109.60000000000002, 44.5%, 56.1%)" stroke-width="1.5"></path><path d="M1403.77 498.82L1403.77 498.82" stroke="hsl(109.60000000000002, 44.5%, 56.1%)" stroke-width="1.5"></path><path d="M1403.77 498.82L1405.15 345.82" stroke="hsl(109.60000000000002, 44.5%, 56.1%)" stroke-width="1.5"></path><path d="M1441.84 661.56L1441.84 661.56" stroke="hsl(109.60000000000002, 44.5%, 56.1%)" stroke-width="1.5"></path><path d="M1441.84 661.56L1584.09 652.06" stroke="hsl(109.60000000000002, 44.5%, 56.1%)" stroke-width="1.5"></path><path d="M1559.76 -55.23L1559.76 -55.23" stroke="hsl(109.60000000000002, 44.5%, 56.1%)" stroke-width="1.5"></path><path d="M1559.76 -55.23L1582.47 105.39" stroke="hsl(109.60000000000002, 44.5%, 56.1%)" stroke-width="1.5"></path><path d="M1559.76 -55.23L1400.26 90.68" stroke="hsl(109.60000000000002, 44.5%, 56.1%)" stroke-width="1.5"></path><path d="M1559.76 -55.23L1538.11 202.61" stroke="hsl(109.60000000000002, 44.5%, 56.1%)" stroke-width="1.5"></path><path d="M1582.47 105.39L1582.47 105.39" stroke="hsl(109.60000000000002, 44.5%, 56.1%)" stroke-width="1.5"></path><path d="M1582.47 105.39L1538.11 202.61" stroke="hsl(109.60000000000002, 44.5%, 56.1%)" stroke-width="1.5"></path><path d="M1582.47 105.39L1405.15 345.82" stroke="hsl(109.60000000000002, 44.5%, 56.1%)" stroke-width="1.5"></path><path d="M1538.11 202.61L1538.11 202.61" stroke="hsl(109.60000000000002, 44.5%, 56.1%)" stroke-width="1.5"></path><path d="M1538.11 202.61L1405.15 345.82" stroke="hsl(109.60000000000002, 44.5%, 56.1%)" stroke-width="1.5"></path><path d="M1538.11 202.61L1287.3 236.05" stroke="hsl(109.60000000000002, 44.5%, 56.1%)" stroke-width="1.5"></path><path d="M1561.61 523.53L1561.61 523.53" stroke="hsl(109.60000000000002, 44.5%, 56.1%)" stroke-width="1.5"></path><path d="M1561.61 523.53L1584.09 652.06" stroke="hsl(109.60000000000002, 44.5%, 56.1%)" stroke-width="1.5"></path><path d="M1561.61 523.53L1403.77 498.82" stroke="hsl(109.60000000000002, 44.5%, 56.1%)" stroke-width="1.5"></path><path d="M1584.09 652.06L1584.09 652.06" stroke="hsl(109.60000000000002, 44.5%, 56.1%)" stroke-width="1.5"></path><path d="M1584.09 652.06L1403.77 498.82" stroke="hsl(109.60000000000002, 44.5%, 56.1%)" stroke-width="1.5"></path><path d="M1584.09 652.06L1309.92 652.69" stroke="hsl(109.60000000000002, 44.5%, 56.1%)" stroke-width="1.5"></path><path d="M1584.09 652.06L1303.45 562.03" stroke="hsl(109.60000000000002, 44.5%, 56.1%)" stroke-width="1.5"></path><circle r="25" cx="231.15" cy="538.66" fill="url(#SvgjsRadialGradient1022)"></circle><circle r="25" cx="1568.84" cy="356.03" fill="url(#SvgjsRadialGradient1022)"></circle><circle r="5" cx="-104.3" cy="546.98" fill="#a7cf9e"></circle><circle r="5" cx="-73.63" cy="647.73" fill="#a7cf9e"></circle><circle r="5" cx="99.89" cy="488.38" fill="#a7cf9e"></circle><circle r="5" cx="108.28" cy="681.66" fill="#a7cf9e"></circle><circle r="5" cx="202.72" cy="684.49" fill="#a7cf9e"></circle><circle r="5" cx="341.67" cy="488.46" fill="#a7cf9e"></circle><circle r="5" cx="391.75" cy="676.86" fill="#a7cf9e"></circle><circle r="5" cx="549.53" cy="561.04" fill="#a7cf9e"></circle><circle r="5" cx="665.77" cy="685.66" fill="#a7cf9e"></circle><circle r="5" cx="788.44" cy="365.81" fill="#a7cf9e"></circle><circle r="5" cx="803.3" cy="518.75" fill="#a7cf9e"></circle><circle r="5" cx="847.88" cy="682.78" fill="#a7cf9e"></circle><circle r="5" cx="988.09" cy="239.91" fill="#a7cf9e"></circle><circle r="5" cx="1006.84" cy="408.95" fill="#a7cf9e"></circle><circle r="5" cx="945.76" cy="557.77" fill="#a7cf9e"></circle><circle r="5" cx="974.25" cy="696.78" fill="#a7cf9e"></circle><circle r="5" cx="1112.15" cy="192.89" fill="#a7cf9e"></circle><circle r="5" cx="1146.87" cy="374.17" fill="#a7cf9e"></circle><circle r="5" cx="1121.45" cy="490.7" fill="#a7cf9e"></circle><circle r="5" cx="1116.79" cy="677.1" fill="#a7cf9e"></circle><circle r="5" cx="1269.74" cy="-65.1" fill="#a7cf9e"></circle><circle r="5" cx="1272.46" cy="96.98" fill="#a7cf9e"></circle><circle r="5" cx="1287.3" cy="236.05" fill="#a7cf9e"></circle><circle r="5" cx="1261.98" cy="345.47" fill="#a7cf9e"></circle><circle r="5" cx="1303.45" cy="562.03" fill="#a7cf9e"></circle><circle r="5" cx="1309.92" cy="652.69" fill="#a7cf9e"></circle><circle r="5" cx="1422.73" cy="-99.14" fill="#a7cf9e"></circle><circle r="5" cx="1400.26" cy="90.68" fill="#a7cf9e"></circle><circle r="5" cx="1405.15" cy="345.82" fill="#a7cf9e"></circle><circle r="5" cx="1403.77" cy="498.82" fill="#a7cf9e"></circle><circle r="5" cx="1441.84" cy="661.56" fill="#a7cf9e"></circle><circle r="5" cx="1559.76" cy="-55.23" fill="#a7cf9e"></circle><circle r="5" cx="1582.47" cy="105.39" fill="#a7cf9e"></circle><circle r="5" cx="1538.11" cy="202.61" fill="#a7cf9e"></circle><circle r="5" cx="1561.61" cy="523.53" fill="#a7cf9e"></circle><circle r="5" cx="1584.09" cy="652.06" fill="#a7cf9e"></circle></g><defs><mask id="SvgjsMask1021"><rect width="1440" height="560" fill="#ffffff"></rect></mask><radialGradient id="SvgjsRadialGradient1022"><stop stop-color="#ffffff" offset="0.1"></stop><stop stop-color="rgba(78, 159, 61, 1)" offset="0.2"></stop><stop stop-color="rgba(78, 159, 61, 0)" offset="1"></stop></radialGradient></defs></svg>